<svg width="191" height="18" viewBox="0 0 191 18" fill="none" xmlns="http://www.w3.org/2000/svg">
<path d="M0 0H3.72829L7.66604 9.72057H7.83361L11.7714 0H15.4996V14.4678H12.5673V5.05102H12.4486L8.74823 14.3972H6.75142L3.05106 5.0157H2.93237V14.4678H0V0Z" fill="#4D4D4D"/>
<path d="M22.8218 14.6797C21.7187 14.6797 20.7692 14.4537 19.9733 14.0016C19.182 13.5447 18.5722 12.8995 18.144 12.0659C17.7158 11.2276 17.5017 10.2363 17.5017 9.09184C17.5017 7.97567 17.7158 6.99608 18.144 6.15306C18.5722 5.31005 19.175 4.65306 19.9523 4.1821C20.7343 3.71115 21.6512 3.47567 22.7031 3.47567C23.4106 3.47567 24.0693 3.59105 24.679 3.82182C25.2934 4.04788 25.8287 4.38932 26.2848 4.84615C26.7456 5.30298 27.104 5.87755 27.36 6.56986C27.616 7.25746 27.744 8.06279 27.744 8.98587V9.8124H18.6886V7.94741H24.9443C24.9443 7.51413 24.8512 7.1303 24.665 6.79592C24.4789 6.46154 24.2205 6.20016 23.8901 6.01177C23.5642 5.81868 23.1849 5.72214 22.752 5.72214C22.3005 5.72214 21.9002 5.8281 21.5511 6.04003C21.2067 6.24725 20.9367 6.52747 20.7413 6.88069C20.5458 7.2292 20.4457 7.61774 20.441 8.04631V9.81947C20.441 10.3564 20.5388 10.8203 20.7343 11.2111C20.9344 11.602 21.216 11.9035 21.5791 12.1154C21.9421 12.3273 22.3727 12.4333 22.8707 12.4333C23.2012 12.4333 23.5037 12.3862 23.7783 12.292C24.053 12.1978 24.288 12.0565 24.4835 11.8681C24.679 11.6797 24.8279 11.449 24.9303 11.1758L27.6812 11.3595C27.5416 12.0283 27.2553 12.6122 26.8224 13.1115C26.3942 13.606 25.8403 13.9922 25.1607 14.27C24.4858 14.5432 23.7062 14.6797 22.8218 14.6797Z" fill="#4D4D4D"/>
<path d="M33.6367 14.6444C32.8221 14.6444 32.0844 14.4325 31.4234 14.0086C30.7672 13.5801 30.2458 12.9513 29.8595 12.1224C29.4778 11.2889 29.287 10.2669 29.287 9.05651C29.287 7.81319 29.4848 6.77943 29.8805 5.95526C30.2761 5.12637 30.8021 4.50706 31.4584 4.09733C32.1193 3.68289 32.8431 3.47567 33.6297 3.47567C34.2301 3.47567 34.7305 3.57928 35.1308 3.7865C35.5357 3.98901 35.8616 4.24333 36.1082 4.54945C36.3596 4.85086 36.5504 5.14757 36.6808 5.43956H36.7715V0H39.7388V14.4678H36.8064V12.73H36.6808C36.5411 13.0314 36.3433 13.3305 36.0873 13.6272C35.836 13.9192 35.5078 14.1617 35.1029 14.3548C34.7026 14.5479 34.2138 14.6444 33.6367 14.6444ZM34.5792 12.2496C35.0586 12.2496 35.4636 12.1177 35.7941 11.854C36.1292 11.5856 36.3852 11.2111 36.5621 10.7308C36.7436 10.2504 36.8344 9.6876 36.8344 9.04239C36.8344 8.39717 36.7459 7.83673 36.569 7.36107C36.3922 6.8854 36.1362 6.51805 35.801 6.25903C35.4659 6 35.0586 5.87049 34.5792 5.87049C34.0905 5.87049 33.6786 6.00471 33.3434 6.27316C33.0083 6.5416 32.7546 6.91366 32.5824 7.38932C32.4102 7.86499 32.3241 8.41601 32.3241 9.04239C32.3241 9.67347 32.4102 10.2316 32.5824 10.7166C32.7593 11.197 33.013 11.5738 33.3434 11.8469C33.6786 12.1154 34.0905 12.2496 34.5792 12.2496Z" fill="#4D4D4D"/>
<path d="M49.0613 9.84772V3.61695H52.0355V14.4678H49.18V12.4969H49.0683C48.8262 13.1327 48.4236 13.6436 47.8604 14.0298C47.3019 14.416 46.62 14.6091 45.8147 14.6091C45.0979 14.6091 44.4672 14.4443 43.9227 14.1146C43.3781 13.7849 42.9522 13.3163 42.645 12.7088C42.3424 12.1013 42.1888 11.3736 42.1842 10.5259V3.61695H45.1584V9.98901C45.1631 10.6295 45.333 11.1358 45.6681 11.5078C46.0032 11.8799 46.4524 12.0659 47.0156 12.0659C47.374 12.0659 47.7091 11.9835 48.021 11.8187C48.3328 11.6491 48.5842 11.3995 48.775 11.0699C48.9705 10.7402 49.0659 10.3328 49.0613 9.84772Z" fill="#4D4D4D"/>
<path d="M59.26 14.6797C58.1615 14.6797 57.2166 14.4443 56.4253 13.9733C55.6387 13.4976 55.0336 12.8383 54.6101 11.9953C54.1912 11.1523 53.9817 10.1821 53.9817 9.08477C53.9817 7.97331 54.1935 6.99843 54.6171 6.16013C55.0453 5.31711 55.6527 4.66013 56.4393 4.18917C57.2259 3.7135 58.1615 3.47567 59.246 3.47567C60.1816 3.47567 61.0008 3.64757 61.7036 3.99137C62.4064 4.33516 62.9627 4.8179 63.3723 5.43956C63.7819 6.06122 64.0076 6.79121 64.0495 7.62951H61.2428C61.1637 7.08791 60.9542 6.65228 60.6144 6.32261C60.2793 5.98823 59.8395 5.82104 59.2949 5.82104C58.8341 5.82104 58.4315 5.94819 58.087 6.20251C57.7472 6.45212 57.4819 6.81711 57.2911 7.29749C57.1003 7.77787 57.0048 8.3595 57.0048 9.04239C57.0048 9.73469 57.0979 10.3234 57.2841 10.8085C57.475 11.2936 57.7426 11.6633 58.087 11.9176C58.4315 12.1719 58.8341 12.2991 59.2949 12.2991C59.6347 12.2991 59.9395 12.2284 60.2095 12.0871C60.4841 11.9458 60.7099 11.741 60.8867 11.4725C61.0683 11.1994 61.187 10.8721 61.2428 10.4906H64.0495C64.003 11.3195 63.7795 12.0495 63.3792 12.6805C62.9836 13.3069 62.4367 13.7967 61.7385 14.1499C61.0403 14.5031 60.2142 14.6797 59.26 14.6797Z" fill="#4D4D4D"/>
<path d="M69.0118 14.6727C68.3276 14.6727 67.7179 14.5526 67.1826 14.3124C66.6473 14.0675 66.2238 13.7072 65.9119 13.2316C65.6047 12.7512 65.4511 12.1531 65.4511 11.4372C65.4511 10.8344 65.5605 10.3281 65.7793 9.91837C65.998 9.50863 66.2959 9.17896 66.6729 8.92936C67.0499 8.67975 67.4782 8.49137 67.9576 8.36421C68.4417 8.23705 68.949 8.14757 69.4796 8.09576C70.1033 8.02983 70.606 7.9686 70.9877 7.91209C71.3694 7.85086 71.6463 7.76138 71.8185 7.64364C71.9907 7.5259 72.0769 7.35165 72.0769 7.12088V7.07849C72.0769 6.63108 71.9372 6.28493 71.6579 6.04003C71.3833 5.79513 70.9923 5.67268 70.485 5.67268C69.9497 5.67268 69.5238 5.79278 69.2073 6.03297C68.8908 6.26845 68.6814 6.56515 68.579 6.92308L65.8281 6.69702C65.9678 6.03768 66.2424 5.46782 66.652 4.98744C67.0616 4.50235 67.5899 4.1303 68.2369 3.87127C68.8885 3.60754 69.6425 3.47567 70.499 3.47567C71.0947 3.47567 71.6649 3.54631 72.2095 3.6876C72.7587 3.82889 73.2451 4.04788 73.6687 4.34458C74.0969 4.64129 74.4344 5.02276 74.6811 5.48901C74.9278 5.95055 75.0511 6.50392 75.0511 7.14914V14.4678H72.2305V12.9631H72.1467C71.9745 13.3022 71.7441 13.6013 71.4555 13.8603C71.1669 14.1146 70.8201 14.3148 70.4152 14.4608C70.0102 14.602 69.5425 14.6727 69.0118 14.6727ZM69.8636 12.5958C70.3011 12.5958 70.6875 12.5086 71.0226 12.3344C71.3577 12.1554 71.6207 11.9152 71.8115 11.6138C72.0024 11.3124 72.0978 10.971 72.0978 10.5895V9.43799C72.0047 9.49921 71.8767 9.55573 71.7138 9.60754C71.5555 9.65463 71.3763 9.69937 71.1762 9.74176C70.9761 9.77943 70.7759 9.81476 70.5758 9.84772C70.3756 9.87598 70.1941 9.90188 70.0312 9.92543C69.6821 9.97724 69.3772 10.0597 69.1166 10.1727C68.8559 10.2857 68.6534 10.4388 68.5091 10.6319C68.3649 10.8203 68.2927 11.0557 68.2927 11.3383C68.2927 11.748 68.4393 12.0612 68.7326 12.2779C69.0305 12.4898 69.4075 12.5958 69.8636 12.5958Z" fill="#4D4D4D"/>
<path d="M83.0628 3.61695V5.87755H76.6046V3.61695H83.0628ZM78.0708 1.01727H81.045V11.1334C81.045 11.4113 81.0869 11.6279 81.1707 11.7834C81.2545 11.9341 81.3708 12.04 81.5198 12.1013C81.6734 12.1625 81.8502 12.1931 82.0504 12.1931C82.19 12.1931 82.3297 12.1813 82.4693 12.1578C82.6089 12.1295 82.716 12.1083 82.7905 12.0942L83.2582 14.3336C83.1093 14.3807 82.8998 14.4349 82.6299 14.4961C82.3599 14.562 82.0318 14.602 81.6454 14.6162C80.9286 14.6444 80.3003 14.5479 79.7604 14.3265C79.2251 14.1052 78.8085 13.7614 78.5106 13.2951C78.2127 12.8289 78.0661 12.2402 78.0708 11.529V1.01727Z" fill="#4D4D4D"/>
<path d="M89.7304 14.6797C88.6459 14.6797 87.708 14.4466 86.9167 13.9804C86.1301 13.5094 85.5227 12.8548 85.0945 12.0165C84.6662 11.1735 84.4521 10.1962 84.4521 9.08477C84.4521 7.96389 84.6662 6.9843 85.0945 6.146C85.5227 5.30298 86.1301 4.64835 86.9167 4.1821C87.708 3.71115 88.6459 3.47567 89.7304 3.47567C90.8149 3.47567 91.7505 3.71115 92.5371 4.1821C93.3284 4.64835 93.9381 5.30298 94.3663 6.146C94.7945 6.9843 95.0087 7.96389 95.0087 9.08477C95.0087 10.1962 94.7945 11.1735 94.3663 12.0165C93.9381 12.8548 93.3284 13.5094 92.5371 13.9804C91.7505 14.4466 90.8149 14.6797 89.7304 14.6797ZM89.7444 12.3485C90.2377 12.3485 90.6497 12.2072 90.9801 11.9246C91.3106 11.6374 91.5596 11.2465 91.7272 10.752C91.8994 10.2575 91.9855 9.69466 91.9855 9.06358C91.9855 8.4325 91.8994 7.8697 91.7272 7.3752C91.5596 6.88069 91.3106 6.4898 90.9801 6.20251C90.6497 5.91523 90.2377 5.77159 89.7444 5.77159C89.2463 5.77159 88.8274 5.91523 88.4876 6.20251C88.1525 6.4898 87.8988 6.88069 87.7266 7.3752C87.559 7.8697 87.4753 8.4325 87.4753 9.06358C87.4753 9.69466 87.559 10.2575 87.7266 10.752C87.8988 11.2465 88.1525 11.6374 88.4876 11.9246C88.8274 12.2072 89.2463 12.3485 89.7444 12.3485Z" fill="#4D4D4D"/>
<path d="M96.9426 14.4678V3.61695H99.8261V5.5102H99.9378C100.133 4.83673 100.461 4.3281 100.922 3.9843C101.383 3.63579 101.914 3.46154 102.514 3.46154C102.663 3.46154 102.824 3.47096 102.996 3.4898C103.168 3.50863 103.319 3.53454 103.45 3.5675V6.23783C103.31 6.19545 103.117 6.15777 102.87 6.1248C102.624 6.09184 102.398 6.07535 102.193 6.07535C101.755 6.07535 101.364 6.1719 101.02 6.36499C100.68 6.55338 100.41 6.81711 100.21 7.1562C100.015 7.49529 99.9169 7.88619 99.9169 8.32889V14.4678H96.9426Z" fill="#4D4D4D"/>
<path d="M113.91 6.71115L111.187 6.88069C111.141 6.64521 111.041 6.43328 110.887 6.2449C110.733 6.05181 110.531 5.89874 110.28 5.78571C110.033 5.66797 109.737 5.60911 109.393 5.60911C108.932 5.60911 108.544 5.70801 108.227 5.90581C107.91 6.0989 107.752 6.35793 107.752 6.68289C107.752 6.94192 107.855 7.16091 108.059 7.33987C108.264 7.51884 108.616 7.66248 109.114 7.7708L111.055 8.16641C112.097 8.38305 112.875 8.73155 113.387 9.21193C113.899 9.69231 114.155 10.3234 114.155 11.1052C114.155 11.8163 113.947 12.4403 113.533 12.9772C113.124 13.5141 112.56 13.9333 111.844 14.2347C111.131 14.5314 110.31 14.6797 109.379 14.6797C107.959 14.6797 106.828 14.3807 105.986 13.7826C105.148 13.1797 104.657 12.3603 104.513 11.3242L107.438 11.1688C107.526 11.6068 107.741 11.9411 108.08 12.1719C108.42 12.398 108.855 12.511 109.386 12.511C109.907 12.511 110.326 12.4097 110.643 12.2072C110.964 12 111.127 11.7339 111.131 11.4089C111.127 11.1358 111.013 10.9121 110.789 10.7378C110.566 10.5589 110.221 10.4223 109.756 10.3281L107.899 9.95369C106.852 9.74176 106.072 9.37441 105.56 8.85165C105.053 8.32889 104.799 7.66248 104.799 6.85243C104.799 6.15542 104.985 5.55494 105.357 5.05102C105.734 4.5471 106.263 4.15856 106.942 3.8854C107.627 3.61225 108.427 3.47567 109.344 3.47567C110.699 3.47567 111.764 3.76531 112.542 4.34458C113.324 4.92386 113.78 5.71272 113.91 6.71115Z" fill="#4D4D4D"/>
<path d="M129.466 0H132.489V9.3956C132.489 10.4505 132.24 11.3736 131.742 12.1648C131.248 12.956 130.557 13.573 129.668 14.0157C128.779 14.4537 127.744 14.6727 126.561 14.6727C125.374 14.6727 124.336 14.4537 123.447 14.0157C122.558 13.573 121.867 12.956 121.374 12.1648C120.88 11.3736 120.634 10.4505 120.634 9.3956V0H123.657V9.13422C123.657 9.68524 123.776 10.175 124.013 10.6036C124.255 11.0322 124.595 11.3689 125.032 11.6138C125.47 11.8587 125.979 11.9812 126.561 11.9812C127.148 11.9812 127.657 11.8587 128.09 11.6138C128.528 11.3689 128.865 11.0322 129.103 10.6036C129.345 10.175 129.466 9.68524 129.466 9.13422V0Z" fill="#4D4D4D"/>
<path d="M134.976 14.4678V0H137.999V6.37912H138.188L143.333 0H146.957L141.651 6.47802L147.02 14.4678H143.403L139.486 8.51962L137.999 10.3564V14.4678H134.976Z" fill="#4D4D4D"/>
<path d="M151.708 12.4898L151.631 13.2669C151.571 13.8885 151.454 14.5078 151.282 15.1248C151.115 15.7465 150.938 16.3093 150.752 16.8132C150.57 17.3171 150.423 17.7127 150.312 18H148.385C148.455 17.7221 148.55 17.3336 148.671 16.8344C148.792 16.3399 148.906 15.7841 149.013 15.1672C149.12 14.5502 149.188 13.9215 149.216 13.281L149.25 12.4898H151.708Z" fill="#4D4D4D"/>
<path d="M161.385 0V14.4678H158.362V0H161.385Z" fill="#4D4D4D"/>
<path d="M166.791 8.19466V14.4678H163.816V3.61695H166.651V5.5314H166.777C167.014 4.90031 167.412 4.4011 167.97 4.03375C168.529 3.6617 169.206 3.47567 170.002 3.47567C170.747 3.47567 171.396 3.6405 171.95 3.97017C172.504 4.29984 172.935 4.7708 173.242 5.38305C173.549 5.99058 173.703 6.71586 173.703 7.55887V14.4678H170.728V8.09576C170.733 7.43171 170.565 6.91366 170.226 6.5416C169.886 6.16484 169.418 5.97645 168.822 5.97645C168.422 5.97645 168.068 6.06358 167.761 6.23783C167.458 6.41209 167.221 6.66641 167.049 7.00078C166.881 7.33046 166.795 7.72841 166.791 8.19466Z" fill="#4D4D4D"/>
<path d="M180.892 14.6797C179.794 14.6797 178.849 14.4443 178.057 13.9733C177.271 13.4976 176.666 12.8383 176.242 11.9953C175.823 11.1523 175.614 10.1821 175.614 9.08477C175.614 7.97331 175.826 6.99843 176.249 6.16013C176.677 5.31711 177.285 4.66013 178.071 4.18917C178.858 3.7135 179.794 3.47567 180.878 3.47567C181.814 3.47567 182.633 3.64757 183.336 3.99137C184.039 4.33516 184.595 4.8179 185.004 5.43956C185.414 6.06122 185.64 6.79121 185.682 7.62951H182.875C182.796 7.08791 182.586 6.65228 182.247 6.32261C181.911 5.98823 181.472 5.82104 180.927 5.82104C180.466 5.82104 180.064 5.94819 179.719 6.20251C179.379 6.45212 179.114 6.81711 178.923 7.29749C178.732 7.77787 178.637 8.3595 178.637 9.04239C178.637 9.73469 178.73 10.3234 178.916 10.8085C179.107 11.2936 179.375 11.6633 179.719 11.9176C180.064 12.1719 180.466 12.2991 180.927 12.2991C181.267 12.2991 181.572 12.2284 181.842 12.0871C182.116 11.9458 182.342 11.741 182.519 11.4725C182.7 11.1994 182.819 10.8721 182.875 10.4906H185.682C185.635 11.3195 185.412 12.0495 185.011 12.6805C184.616 13.3069 184.069 13.7967 183.371 14.1499C182.672 14.5031 181.846 14.6797 180.892 14.6797Z" fill="#4D4D4D"/>
<path d="M189.324 14.6515C188.864 14.6515 188.468 14.4867 188.137 14.157C187.812 13.8226 187.649 13.4223 187.649 12.956C187.649 12.4945 187.812 12.0989 188.137 11.7692C188.468 11.4396 188.864 11.2747 189.324 11.2747C189.771 11.2747 190.162 11.4396 190.497 11.7692C190.832 12.0989 191 12.4945 191 12.956C191 13.2669 190.921 13.5518 190.763 13.8108C190.609 14.0651 190.407 14.27 190.155 14.4254C189.904 14.5761 189.627 14.6515 189.324 14.6515Z" fill="#4D4D4D"/>
</svg>
