<svg width="212" height="46" viewBox="0 0 212 46" fill="none" xmlns="http://www.w3.org/2000/svg">
<path d="M85.0255 10.7085C82.9043 9.93938 80.5805 9.93938 78.4593 10.7085C77.4255 11.0922 76.4754 11.6716 75.6609 12.4149C74.8512 13.1352 74.2004 14.0162 73.7497 15.0018C73.2954 16.0126 73.0605 17.1083 73.0605 18.2166C73.0605 19.3248 73.2954 20.4205 73.7497 21.4314C74.2131 22.4169 74.8674 23.3008 75.6745 24.0319C76.4877 24.7771 77.4382 25.3566 78.473 25.7383C79.6955 26.2074 81.0045 26.4087 82.3115 26.3286C83.6185 26.2485 84.8931 25.889 86.0493 25.2741C87.3546 24.6081 88.4594 23.6069 89.2504 22.3733C90.0435 21.1558 90.4591 19.731 90.4449 18.278V4.66797H85.9674V11.1317L85.0255 10.7085ZM84.6978 21.1174C83.9103 21.8915 82.8501 22.3253 81.7458 22.3253C80.6415 22.3253 79.5814 21.8915 78.7938 21.1174C78.3932 20.7483 78.074 20.2996 77.8566 19.8001C77.6392 19.3007 77.5283 18.7613 77.5311 18.2166C77.5217 17.4912 77.7259 16.7792 78.1181 16.1689C78.5024 15.5527 79.0381 15.0451 79.6743 14.6946C80.3046 14.3323 81.0188 14.1417 81.7458 14.1417C82.4728 14.1417 83.1871 14.3323 83.8174 14.6946C84.4508 15.0487 84.9858 15.5555 85.3736 16.1689C85.7637 16.7798 85.9655 17.4919 85.9537 18.2166C85.9578 18.7609 85.8482 19.3 85.6319 19.7995C85.4157 20.299 85.0975 20.7479 84.6978 21.1174Z" fill="#516DB4"/>
<path d="M99.4817 26.3199H99.7411C104.116 26.0878 106.246 23.8696 106.246 19.5627V10.7305H101.755V19.5627C101.755 21.3236 101.072 22.2383 99.7479 22.2929H99.4681C98.103 22.2451 97.4546 21.3305 97.4546 19.5627V10.7305H92.9634V19.5627C92.9634 23.8491 95.0929 26.0878 99.4817 26.3199Z" fill="#516DB4"/>
<path d="M115.965 10.096C114.784 10.0875 113.612 10.2933 112.505 10.7034C111.491 11.084 110.563 11.6616 109.774 12.403C109.006 13.1614 108.398 14.0667 107.986 15.0649C107.552 16.1496 107.336 17.3094 107.351 18.4777C107.35 19.8341 107.713 21.166 108.402 22.3341C109.129 23.5456 110.172 24.5366 111.419 25.2008C112.82 25.9426 114.387 26.316 115.972 26.286C117.384 26.2607 118.777 25.952 120.067 25.3782C120.591 25.1481 121.074 24.832 121.494 24.4432L119.057 21.3444C118.208 22.0474 117.135 22.4227 116.033 22.4023C115.25 22.4177 114.479 22.2043 113.815 21.788C113.169 21.4038 112.65 20.8391 112.32 20.1636C111.969 19.4507 111.791 18.6649 111.802 17.8702C111.792 17.346 111.896 16.826 112.106 16.3454C112.315 15.8649 112.626 15.4352 113.016 15.0854C113.809 14.3438 114.86 13.942 115.945 13.966C116.538 13.9645 117.128 14.059 117.692 14.2459C118.18 14.4124 118.637 14.6593 119.043 14.9762L121.35 11.8365C120.614 11.2835 119.794 10.8525 118.921 10.5601C117.966 10.2496 116.969 10.0929 115.965 10.096Z" fill="#516DB4"/>
<path d="M138.346 25.8968V18.1976C138.355 17.0869 138.122 15.9876 137.663 14.976C137.198 13.9996 136.544 13.125 135.739 12.4028C134.929 11.6643 133.983 11.0916 132.954 10.7169C131.899 10.3234 130.783 10.1223 129.657 10.123C128.532 10.1225 127.417 10.3284 126.367 10.7305C125.338 11.0999 124.392 11.6681 123.582 12.4028C122.781 13.1283 122.132 14.0051 121.671 14.9828C121.143 16.1583 120.912 17.446 121 18.7318C121.088 20.0177 121.492 21.2619 122.176 22.3543C122.975 23.5813 124.078 24.5806 125.377 25.2552C126.537 25.8612 127.812 26.2141 129.118 26.2906C130.424 26.3671 131.731 26.1654 132.954 25.6988C133.104 25.6511 133.336 25.5555 133.636 25.419L133.875 25.3098V25.8558L138.346 25.8968ZM132.626 21.1189C131.837 21.8898 130.777 22.3213 129.674 22.3213C128.571 22.3213 127.511 21.8898 126.722 21.1189C126.322 20.7518 126.004 20.3055 125.786 19.8084C125.569 19.3113 125.458 18.7743 125.459 18.2317C125.453 17.5068 125.657 16.7956 126.046 16.1841C126.441 15.5572 126.988 15.0405 127.637 14.6825C128.271 14.3317 128.984 14.1477 129.708 14.1477C130.433 14.1477 131.146 14.3317 131.78 14.6825C132.413 15.0394 132.948 15.5484 133.336 16.1636C133.725 16.7752 133.929 17.4864 133.923 18.2113C133.923 18.7598 133.808 19.3023 133.584 19.8033C133.361 20.3043 133.034 20.7526 132.626 21.1189Z" fill="#516DB4"/>
<path d="M142.612 23.6518C143.072 24.5493 143.816 25.2693 144.728 25.6995C145.836 26.1882 147.039 26.4215 148.25 26.382C148.769 26.3802 149.266 26.1733 149.633 25.8063C150 25.4393 150.207 24.9421 150.209 24.4231V21.9045C149.849 21.9944 149.48 22.0358 149.11 22.0274C147.294 22.0274 146.379 21.2765 146.379 19.8022V14.5125H148.543L149.526 10.7107H146.379V4.79297H141.902V10.738H139.759L138.762 14.5398H141.895V20.2049C141.854 21.3948 142.1 22.5771 142.612 23.6518Z" fill="#516DB4"/>
<path d="M151.997 14.9759C151.538 15.9873 151.305 17.0868 151.315 18.1975C151.296 19.6756 151.714 21.1264 152.516 22.3679C153.306 23.6035 154.408 24.6089 155.71 25.2824C156.866 25.8972 158.141 26.2568 159.448 26.3369C160.755 26.4169 162.064 26.2156 163.286 25.7465C164.322 25.3614 165.274 24.7822 166.092 24.0402C166.902 23.3039 167.557 22.4127 168.017 21.4192C168.478 20.4085 168.711 19.3085 168.699 18.1975C168.708 17.0868 168.475 15.9875 168.017 14.9759C167.553 13.9859 166.899 13.0975 166.09 12.3618C165.282 11.6261 164.336 11.0577 163.307 10.6895C161.188 9.89777 158.853 9.89777 156.734 10.6895C155.701 11.0722 154.751 11.6491 153.936 12.389C153.123 13.1127 152.463 13.9924 151.997 14.9759ZM156.365 16.1635C156.751 15.5467 157.286 15.0372 157.922 14.6824C158.552 14.3214 159.266 14.1315 159.993 14.1315C160.72 14.1315 161.434 14.3214 162.065 14.6824C162.699 15.0391 163.233 15.5482 163.621 16.1635C164.008 16.7757 164.21 17.4869 164.201 18.2112C164.206 18.7566 164.096 19.2969 163.88 19.7976C163.664 20.2983 163.345 20.7483 162.945 21.1188C162.158 21.8929 161.098 22.3267 159.993 22.3267C158.889 22.3267 157.829 21.8929 157.041 21.1188C156.639 20.7497 156.318 20.3001 156.101 19.7992C155.883 19.2983 155.773 18.7573 155.778 18.2112C155.772 17.4863 155.976 16.7751 156.365 16.1635Z" fill="#516DB4"/>
<path d="M176.275 14.1286H176.555C176.834 14.1396 177.109 14.1997 177.367 14.3061V10.1972C177.096 10.1569 176.822 10.1341 176.548 10.1289H176.282C171.907 10.3473 169.777 12.5588 169.777 16.893V25.8549H174.269V16.8725C174.269 15.1047 174.944 14.1833 176.275 14.1286Z" fill="#516DB4"/>
<path d="M182.295 26.1427C183.067 26.2917 183.851 26.3626 184.637 26.3543C185.657 26.3539 186.667 26.1473 187.606 25.7469C188.514 25.3957 189.303 24.7917 189.879 24.0064C190.447 23.2112 190.741 22.2531 190.718 21.2762C190.818 20.1494 190.47 19.0287 189.749 18.1569C189.09 17.4845 188.255 17.0114 187.339 16.7918C186.445 16.5802 185.531 16.355 184.609 16.1093C183.688 15.8635 183.244 15.4267 183.244 14.7442C183.244 14.0616 183.858 13.6521 185.067 13.6521C185.972 13.6548 186.854 13.9439 187.585 14.478L190.008 12.0686C189.579 11.6933 189.11 11.366 188.609 11.0925C188.035 10.7666 187.426 10.5078 186.793 10.3212C186.2 10.1542 185.587 10.0692 184.971 10.0687C183.964 10.0594 182.965 10.2448 182.029 10.6147C181.184 10.9507 180.45 11.5185 179.913 12.2529C179.361 13.0534 179.081 14.0108 179.115 14.9831C179.023 16.0985 179.371 17.2058 180.084 18.0682C180.749 18.7555 181.593 19.2427 182.521 19.4742C183.783 19.8019 184.657 20.0271 185.21 20.1568C186.09 20.3957 186.534 20.7779 186.534 21.3035C186.534 22.259 185.749 22.7436 184.2 22.7436C182.906 22.7614 181.656 22.2713 180.719 21.3785L178.494 24.3203C179.068 24.7518 179.681 25.1309 180.323 25.4534C180.942 25.7816 181.607 26.014 182.295 26.1427Z" fill="#516DB4"/>
<path d="M63.6411 26.3538C65.5153 26.3793 67.3422 25.765 68.8202 24.6122C70.2981 23.4593 71.3387 21.837 71.7703 20.0129H68.3098C67.5794 21.7057 66.0164 22.6408 63.8937 22.6408C60.7949 22.6408 59.068 21.2757 59.0407 18.7025V18.525H59.2114H71.9341V18.4226C71.9341 18.3612 71.9341 18.3134 71.9341 18.2724V18.1359C71.9356 17.0348 71.7029 15.946 71.2515 14.9416C70.825 13.9634 70.2024 13.083 69.4223 12.3547C68.6444 11.6262 67.7338 11.0538 66.7399 10.6688C64.7156 9.88382 62.471 9.88382 60.4468 10.6688C59.456 11.0581 58.5498 11.6352 57.778 12.3684C57.0087 13.1094 56.3939 13.9956 55.9693 14.9757C55.5145 15.979 55.2816 17.0686 55.2867 18.1701C55.2833 18.195 55.2833 18.2202 55.2867 18.2451C55.2867 18.2451 55.2867 18.3066 55.2867 18.3407V18.5113C55.3773 20.6514 56.3025 22.6707 57.8642 24.1367C59.4259 25.6027 61.4997 26.3986 63.6411 26.3538ZM60.5492 15.6583C60.8629 15.2782 61.2336 14.949 61.6481 14.6822C62.2532 14.3336 62.9393 14.1502 63.6377 14.1502C64.3361 14.1502 65.0222 14.3336 65.6273 14.6822C66.0454 14.9468 66.4187 15.2762 66.7331 15.6583L66.972 15.9381H60.3103L60.5492 15.6583Z" fill="#516DB4"/>
<path d="M210.519 29.3091H53.6211C53.4507 29.3142 53.2833 29.2636 53.1441 29.1651C53.005 29.0666 52.9017 28.9255 52.8499 28.763L45.1575 1.46105C45.0364 1.03667 44.7793 0.66383 44.4256 0.399871C44.0719 0.135913 43.6413 -0.00454131 43.2 0.000112006C42.7588 0.00476532 42.3312 0.154269 41.9832 0.425626C41.6352 0.696984 41.3859 1.07517 41.2738 1.502L33.9569 29.7186C33.8866 30.0021 33.7245 30.2544 33.4958 30.4362C33.2672 30.618 32.9849 30.7192 32.6928 30.7238C32.4008 30.7285 32.1154 30.6365 31.8811 30.4621C31.6467 30.2877 31.4767 30.0407 31.3973 29.7596L26.5649 13.0985C26.4438 12.6889 26.1957 12.3284 25.8563 12.069C25.5169 11.8097 25.1038 11.665 24.6768 11.6559C24.2498 11.6468 23.8309 11.7737 23.4808 12.0183C23.1306 12.2629 22.8673 12.6125 22.7289 13.0166L17.1661 29.3978C17.1088 29.5527 17.004 29.6856 16.8668 29.7775C16.7295 29.8694 16.5668 29.9157 16.4017 29.9097H1.48115C1.28803 29.9042 1.09578 29.9376 0.915839 30.008C0.735899 30.0783 0.571952 30.1841 0.433756 30.3192C0.295561 30.4542 0.185943 30.6156 0.111428 30.7939C0.0369135 30.9721 -0.000974779 31.1635 1.90567e-05 31.3567V32.7218C0.0194795 33.0978 0.185398 33.4512 0.462239 33.7064C0.73908 33.9615 1.10483 34.0981 1.48115 34.0869H19.7121C20.0274 34.0985 20.3382 34.0087 20.5986 33.8305C20.8591 33.6524 21.0555 33.3953 21.1591 33.0972L23.1112 27.2614C23.2057 26.9998 23.378 26.7733 23.6049 26.6122C23.8318 26.4512 24.1025 26.3634 24.3807 26.3605C24.659 26.356 24.9314 26.4412 25.1575 26.6034C25.3837 26.7657 25.5517 26.9964 25.6366 27.2614L30.9741 44.3252C31.1046 44.7286 31.3617 45.0793 31.7071 45.3252C32.0526 45.5711 32.4681 45.6991 32.8921 45.6903H32.933C33.3607 45.6861 33.7754 45.5426 34.1141 45.2815C34.4529 45.0203 34.6972 44.6558 34.8101 44.2433L42.0724 17.8218C42.1518 17.5436 42.3197 17.299 42.5506 17.1248C42.7816 16.9506 43.0629 16.8564 43.3522 16.8564C43.6414 16.8564 43.9228 16.9506 44.1537 17.1248C44.3846 17.299 44.5525 17.5436 44.632 17.8218L48.7273 32.4079C48.827 32.7061 49.0204 32.9643 49.2787 33.1438C49.5369 33.3234 49.8462 33.4147 50.1606 33.4044H210.519C210.895 33.4138 211.26 33.2766 211.536 33.0218C211.812 32.767 211.979 32.4146 212 32.0393V30.6742C211.979 30.2988 211.812 29.9464 211.536 29.6916C211.26 29.4368 210.895 29.2996 210.519 29.3091Z" fill="#526EB5"/>
<path d="M197.093 26.3046C196.702 26.3333 196.31 26.2788 195.942 26.1447C195.573 26.0106 195.238 25.7998 194.957 25.5264C194.432 24.8692 194.176 24.0375 194.24 23.199V17.916H194.998V23.0351C194.948 23.7095 195.133 24.3802 195.523 24.9326C195.947 25.335 196.509 25.5593 197.093 25.5593C197.677 25.5593 198.239 25.335 198.663 24.9326C199.053 24.3802 199.239 23.7095 199.189 23.0351V17.916H199.987V23.199C200.051 24.0375 199.795 24.8692 199.271 25.5264C198.985 25.8049 198.642 26.0185 198.267 26.1528C197.891 26.2871 197.491 26.3388 197.093 26.3046Z" fill="#516DB4"/>
<path d="M201.482 26.1476V17.916H202.24V21.6905L205.932 17.916H206.888L202.895 22.0113L207.304 26.168H206.239L202.24 22.414V26.1476H201.482Z" fill="#516DB4"/>
</svg>
