<svg width="185" height="40" viewBox="0 0 185 40" fill="none" xmlns="http://www.w3.org/2000/svg">
<path d="M74.1966 9.34547C72.3456 8.67427 70.3177 8.67427 68.4667 9.34547C67.5646 9.68027 66.7354 10.1858 66.0246 10.8345C65.3181 11.4631 64.7502 12.2319 64.3569 13.0919C63.9605 13.9741 63.7555 14.9302 63.7555 15.8973C63.7555 16.8644 63.9605 17.8206 64.3569 18.7027C64.7613 19.5627 65.3322 20.334 66.0366 20.972C66.7461 21.6222 67.5756 22.128 68.4786 22.461C69.5455 22.8704 70.6877 23.0461 71.8283 22.9762C72.9688 22.9063 74.0811 22.5925 75.09 22.056C76.2291 21.4748 77.1932 20.6011 77.8835 19.5246C78.5755 18.4622 78.9382 17.2188 78.9258 15.9509V4.07422H75.0185V9.71475L74.1966 9.34547ZM73.9107 18.4287C73.2234 19.1042 72.2983 19.4827 71.3346 19.4827C70.3709 19.4827 69.4458 19.1042 68.7586 18.4287C68.409 18.1065 68.1305 17.715 67.9407 17.2792C67.751 16.8433 67.6542 16.3727 67.6567 15.8973C67.6485 15.2643 67.8266 14.643 68.1689 14.1104C68.5043 13.5727 68.9718 13.1297 69.5269 12.8239C70.0769 12.5077 70.7002 12.3414 71.3346 12.3414C71.969 12.3414 72.5923 12.5077 73.1423 12.8239C73.6951 13.1329 74.1619 13.5751 74.5003 14.1104C74.8408 14.6435 75.0169 15.2649 75.0066 15.8973C75.0102 16.3723 74.9145 16.8428 74.7258 17.2787C74.5371 17.7145 74.2594 18.1062 73.9107 18.4287Z" fill="#516DB4"/>
<path d="M86.8117 22.9673H87.0381C90.856 22.7648 92.7143 20.829 92.7143 17.0706V9.36328H88.7951V17.0706C88.7951 18.6073 88.1995 19.4055 87.044 19.4531H86.7998C85.6086 19.4114 85.0427 18.6133 85.0427 17.0706V9.36328H81.1235V17.0706C81.1235 20.8111 82.9819 22.7648 86.8117 22.9673Z" fill="#516DB4"/>
<path d="M101.196 8.81077C100.166 8.80335 99.1424 8.98296 98.1762 9.34087C97.2918 9.67294 96.482 10.177 95.7937 10.824C95.1231 11.4858 94.5924 12.2758 94.2332 13.1469C93.8543 14.0934 93.666 15.1055 93.6792 16.125C93.6779 17.3087 93.9948 18.4709 94.5965 19.4903C95.2309 20.5475 96.1409 21.4122 97.2291 21.9919C98.4517 22.6392 99.8188 22.9651 101.202 22.9389C102.434 22.9168 103.649 22.6474 104.776 22.1467C105.233 21.9459 105.654 21.6701 106.021 21.3307L103.894 18.6266C103.153 19.2401 102.217 19.5676 101.256 19.5498C100.572 19.5633 99.8991 19.377 99.3198 19.0138C98.7561 18.6784 98.3027 18.1857 98.0154 17.5962C97.7087 16.9741 97.5536 16.2884 97.5627 15.5949C97.5546 15.1375 97.6451 14.6837 97.8281 14.2643C98.011 13.845 98.2821 13.47 98.6229 13.1648C99.3142 12.5176 100.231 12.167 101.178 12.1879C101.696 12.1866 102.211 12.2691 102.703 12.4321C103.129 12.5775 103.527 12.7929 103.882 13.0695L105.895 10.3296C105.253 9.84704 104.537 9.47096 103.775 9.21579C102.942 8.94484 102.072 8.80813 101.196 8.81077Z" fill="#516DB4"/>
<path d="M120.727 22.5988V15.8802C120.734 14.911 120.531 13.9516 120.131 13.0689C119.725 12.2168 119.154 11.4536 118.451 10.8234C117.745 10.179 116.919 9.67918 116.021 9.35218C115.101 9.00882 114.127 8.83331 113.144 8.83399C112.163 8.83349 111.19 9.01317 110.273 9.36409C109.375 9.68641 108.55 10.1823 107.843 10.8234C107.144 11.4565 106.577 12.2216 106.176 13.0748C105.714 14.1006 105.513 15.2243 105.59 16.3464C105.667 17.4685 106.019 18.5542 106.616 19.5075C107.313 20.5782 108.276 21.4503 109.41 22.0389C110.422 22.5677 111.534 22.8757 112.674 22.9424C113.814 23.0092 114.955 22.8332 116.021 22.4261C116.152 22.3844 116.355 22.301 116.617 22.1819L116.825 22.0866V22.5631L120.727 22.5988ZM115.735 18.4294C115.047 19.1021 114.122 19.4787 113.159 19.4787C112.196 19.4787 111.272 19.1021 110.583 18.4294C110.234 18.1091 109.956 17.7196 109.767 17.2858C109.577 16.852 109.48 16.3834 109.481 15.91C109.476 15.2774 109.654 14.6568 109.993 14.1231C110.338 13.576 110.815 13.1252 111.381 12.8127C111.935 12.5066 112.557 12.3461 113.189 12.3461C113.821 12.3461 114.443 12.5066 114.997 12.8127C115.55 13.1242 116.016 13.5684 116.355 14.1052C116.694 14.6389 116.872 15.2595 116.867 15.8921C116.867 16.3708 116.766 16.8442 116.571 17.2814C116.376 17.7186 116.092 18.1098 115.735 18.4294Z" fill="#516DB4"/>
<path d="M124.449 20.6387C124.85 21.4218 125.5 22.0501 126.296 22.4255C127.262 22.852 128.313 23.0556 129.369 23.0211C129.822 23.0196 130.256 22.839 130.576 22.5187C130.896 22.1985 131.077 21.7646 131.078 21.3117V19.1139C130.765 19.1924 130.442 19.2284 130.119 19.2211C128.535 19.2211 127.737 18.5659 127.737 17.2794V12.6633H129.625L130.483 9.34568H127.737V4.18164H123.83V9.3695H121.959L121.09 12.6871H123.824V17.6308C123.788 18.6691 124.002 19.7008 124.449 20.6387Z" fill="#516DB4"/>
<path d="M132.639 13.0692C132.238 13.9518 132.035 14.9112 132.043 15.8805C132.027 17.1704 132.392 18.4364 133.092 19.5198C133.781 20.598 134.742 21.4753 135.879 22.0631C136.888 22.5996 138 22.9134 139.141 22.9833C140.281 23.0531 141.424 22.8775 142.491 22.4681C143.394 22.132 144.225 21.6266 144.939 20.9791C145.646 20.3366 146.217 19.5589 146.618 18.6919C147.021 17.8099 147.224 16.85 147.214 15.8805C147.222 14.9113 147.018 13.952 146.618 13.0692C146.214 12.2053 145.643 11.43 144.937 10.788C144.232 10.146 143.406 9.65005 142.508 9.32871C140.659 8.63783 138.622 8.63783 136.773 9.32871C135.871 9.66267 135.042 10.1661 134.331 10.8118C133.621 11.4433 133.046 12.211 132.639 13.0692ZM136.451 14.1056C136.788 13.5673 137.255 13.1227 137.809 12.8131C138.359 12.4981 138.983 12.3324 139.617 12.3324C140.251 12.3324 140.874 12.4981 141.424 12.8131C141.977 13.1244 142.444 13.5686 142.782 14.1056C143.12 14.6398 143.296 15.2604 143.289 15.8925C143.293 16.3684 143.197 16.8399 143.009 17.2768C142.82 17.7137 142.542 18.1064 142.193 18.4298C141.505 19.1053 140.58 19.4838 139.617 19.4838C138.653 19.4838 137.728 19.1053 137.041 18.4298C136.689 18.1077 136.41 17.7153 136.22 17.2782C136.03 16.8411 135.934 16.369 135.939 15.8925C135.933 15.2599 136.111 14.6393 136.451 14.1056Z" fill="#516DB4"/>
<path d="M153.825 12.3302H154.069C154.313 12.3397 154.553 12.3922 154.778 12.485V8.89941C154.541 8.8643 154.303 8.8444 154.063 8.83984H153.831C150.013 9.03044 148.155 10.9603 148.155 14.7425V22.563H152.074V14.7246C152.074 13.1819 152.664 12.3778 153.825 12.3302Z" fill="#516DB4"/>
<path d="M159.079 22.8123C159.752 22.9423 160.436 23.0042 161.122 22.997C162.012 22.9966 162.893 22.8163 163.713 22.4669C164.505 22.1604 165.193 21.6333 165.696 20.948C166.192 20.2542 166.449 19.4181 166.429 18.5656C166.516 17.5823 166.212 16.6043 165.583 15.8436C165.008 15.2568 164.279 14.844 163.48 14.6523C162.7 14.4677 161.902 14.2711 161.098 14.0567C160.294 13.8423 159.907 13.4611 159.907 12.8655C159.907 12.2698 160.443 11.9125 161.497 11.9125C162.287 11.9149 163.056 12.1671 163.695 12.6332L165.809 10.5306C165.434 10.2031 165.025 9.91755 164.588 9.67888C164.088 9.3945 163.556 9.16867 163.004 9.00583C162.486 8.86006 161.951 8.78591 161.413 8.78545C160.535 8.77732 159.663 8.93912 158.846 9.26194C158.109 9.55514 157.469 10.0506 157 10.6914C156.518 11.39 156.273 12.2255 156.303 13.0739C156.223 14.0473 156.526 15.0136 157.149 15.7661C157.729 16.3659 158.466 16.791 159.275 16.9931C160.377 17.279 161.139 17.4756 161.622 17.5887C162.39 17.7972 162.777 18.1307 162.777 18.5894C162.777 19.4232 162.092 19.8461 160.74 19.8461C159.611 19.8616 158.52 19.434 157.703 18.6549L155.761 21.222C156.263 21.5985 156.797 21.9294 157.357 22.2108C157.897 22.4972 158.478 22.7 159.079 22.8123Z" fill="#516DB4"/>
<path d="M55.5358 22.998C57.1713 23.0203 58.7655 22.4842 60.0552 21.4782C61.3449 20.4722 62.253 19.0564 62.6296 17.4647H59.6098C58.9725 18.9419 57.6085 19.7579 55.7562 19.7579C53.052 19.7579 51.5451 18.5666 51.5213 16.3211V16.1663H51.6702H62.7726V16.0769C62.7726 16.0233 62.7726 15.9816 62.7726 15.9459V15.8268C62.7739 14.8659 62.5708 13.9157 62.177 13.0392C61.8047 12.1856 61.2614 11.4173 60.5807 10.7818C59.9019 10.146 59.1072 9.6466 58.2399 9.31065C56.4734 8.62562 54.5147 8.62562 52.7483 9.31065C51.8836 9.65031 51.0928 10.1539 50.4194 10.7938C49.7481 11.4404 49.2116 12.2137 48.841 13.069C48.4441 13.9445 48.2409 14.8953 48.2454 15.8565C48.2424 15.8783 48.2424 15.9003 48.2454 15.9221C48.2454 15.9221 48.2454 15.9757 48.2454 16.0054V16.1543C48.3244 18.0218 49.1318 19.784 50.4946 21.0633C51.8574 22.3426 53.667 23.0371 55.5358 22.998ZM52.8376 13.6646C53.1114 13.333 53.4349 13.0457 53.7966 12.8129C54.3246 12.5087 54.9234 12.3486 55.5328 12.3486C56.1422 12.3486 56.741 12.5087 57.269 12.8129C57.6339 13.0437 57.9596 13.3313 58.2339 13.6646L58.4424 13.9089H52.6291L52.8376 13.6646Z" fill="#516DB4"/>
<path d="M183.707 25.5763H46.792C46.6433 25.5808 46.4972 25.5367 46.3758 25.4507C46.2543 25.3647 46.1642 25.2416 46.119 25.0998L39.4063 1.27497C39.3007 0.904642 39.0762 0.579285 38.7676 0.348944C38.459 0.118603 38.0832 -0.00396293 37.6981 9.7741e-05C37.3131 0.00415841 36.94 0.134621 36.6363 0.371419C36.3326 0.608217 36.1151 0.938234 36.0172 1.31071L29.6322 25.9337C29.5708 26.1811 29.4294 26.4013 29.2299 26.5599C29.0304 26.7186 28.784 26.8068 28.5291 26.8109C28.2743 26.815 28.0252 26.7347 27.8207 26.5825C27.6163 26.4303 27.4678 26.2147 27.3986 25.9694L23.1816 11.4303C23.076 11.0729 22.8595 10.7582 22.5633 10.5319C22.2671 10.3057 21.9067 10.1794 21.534 10.1714C21.1614 10.1635 20.7959 10.2742 20.4903 10.4877C20.1847 10.7011 19.955 11.0062 19.8342 11.3588L14.9799 25.6537C14.9298 25.7889 14.8384 25.9049 14.7187 25.9851C14.5989 26.0653 14.4569 26.1057 14.3128 26.1005H1.29251C1.12399 26.0957 0.956222 26.1248 0.799199 26.1862C0.642176 26.2476 0.499109 26.3399 0.378514 26.4578C0.257919 26.5756 0.162262 26.7164 0.0972369 26.872C0.0322122 27.0275 -0.000850633 27.1946 1.66297e-05 27.3632V28.5544C0.0169987 28.8825 0.161786 29.1909 0.403369 29.4136C0.644952 29.6362 0.964121 29.7554 1.29251 29.7457H17.2016C17.4768 29.7558 17.7479 29.6774 17.9752 29.5219C18.2025 29.3664 18.3739 29.1422 18.4643 28.882L20.1678 23.7895C20.2503 23.5611 20.4006 23.3635 20.5986 23.2229C20.7966 23.0824 21.0328 23.0058 21.2756 23.0032C21.5185 22.9993 21.7561 23.0736 21.9535 23.2152C22.1509 23.3568 22.2974 23.5581 22.3716 23.7895L27.0293 38.68C27.1432 39.0321 27.3675 39.3381 27.669 39.5527C27.9704 39.7672 28.333 39.8789 28.703 39.8712H28.7387C29.112 39.8676 29.4738 39.7424 29.7694 39.5145C30.065 39.2866 30.2782 38.9685 30.3767 38.6085L36.7141 15.552C36.7834 15.3093 36.9299 15.0958 37.1315 14.9438C37.333 14.7918 37.5785 14.7096 37.8309 14.7096C38.0833 14.7096 38.3289 14.7918 38.5304 14.9438C38.7319 15.0958 38.8784 15.3093 38.9477 15.552L42.5214 28.2804C42.6085 28.5407 42.7773 28.766 43.0026 28.9227C43.228 29.0793 43.4979 29.1591 43.7722 29.15H183.707C184.035 29.1583 184.354 29.0386 184.595 28.8162C184.836 28.5939 184.982 28.2864 185 27.9588V26.7676C184.982 26.44 184.836 26.1325 184.595 25.9101C184.354 25.6878 184.035 25.5681 183.707 25.5763Z" fill="#526EB5"/>
<path d="M171.992 22.955C171.651 22.98 171.308 22.9325 170.987 22.8155C170.665 22.6984 170.372 22.5145 170.127 22.2759C169.669 21.7024 169.446 20.9766 169.502 20.2449V15.6348H170.163V20.1019C170.119 20.6904 170.281 21.2757 170.622 21.7578C170.991 22.1088 171.482 22.3046 171.992 22.3046C172.502 22.3046 172.992 22.1088 173.362 21.7578C173.702 21.2757 173.864 20.6904 173.82 20.1019V15.6348H174.517V20.2449C174.573 20.9766 174.35 21.7024 173.892 22.2759C173.642 22.5189 173.344 22.7054 173.016 22.8225C172.688 22.9397 172.339 22.9849 171.992 22.955Z" fill="#516DB4"/>
<path d="M175.821 22.818V15.6348H176.483V18.9286L179.705 15.6348H180.539L177.054 19.2085L180.902 22.8358H179.973L176.483 19.5599V22.818H175.821Z" fill="#516DB4"/>
</svg>
