<svg width="600" height="93" viewBox="0 0 600 93" fill="none" xmlns="http://www.w3.org/2000/svg">
<path d="M279.025 35.7085C276.904 34.9394 274.58 34.9394 272.459 35.7085C271.425 36.0922 270.475 36.6716 269.661 37.4149C268.851 38.1352 268.2 39.0162 267.749 40.0018C267.295 41.0126 267.06 42.1083 267.06 43.2166C267.06 44.3248 267.295 45.4205 267.749 46.4314C268.213 47.4169 268.867 48.3008 269.674 49.0319C270.487 49.7771 271.438 50.3566 272.473 50.7383C273.695 51.2074 275.004 51.4087 276.311 51.3286C277.618 51.2485 278.893 50.889 280.049 50.2741C281.354 49.6081 282.459 48.6069 283.25 47.3733C284.043 46.1558 284.459 44.731 284.445 43.278V29.668H279.967V36.1317L279.025 35.7085ZM278.698 46.1174C277.91 46.8915 276.85 47.3253 275.746 47.3253C274.641 47.3253 273.581 46.8915 272.794 46.1174C272.393 45.7483 272.074 45.2996 271.856 44.8001C271.639 44.3007 271.528 43.7613 271.531 43.2166C271.521 42.4912 271.726 41.7792 272.118 41.1689C272.502 40.5527 273.038 40.0451 273.674 39.6946C274.304 39.3323 275.019 39.1417 275.746 39.1417C276.473 39.1417 277.187 39.3323 277.817 39.6946C278.451 40.0487 278.986 40.5555 279.373 41.1689C279.763 41.7798 279.965 42.4919 279.953 43.2166C279.958 43.7609 279.848 44.3 279.632 44.7995C279.415 45.299 279.097 45.7479 278.698 46.1174Z" fill="#516DB4"/>
<path d="M293.482 51.3199H293.741C298.116 51.0878 300.246 48.8696 300.246 44.5627V35.7305H295.755V44.5627C295.755 46.3236 295.072 47.2383 293.748 47.2929H293.468C292.103 47.2451 291.454 46.3305 291.454 44.5627V35.7305H286.963V44.5627C286.963 48.8491 289.093 51.0878 293.482 51.3199Z" fill="#516DB4"/>
<path d="M309.965 35.096C308.784 35.0875 307.612 35.2933 306.505 35.7034C305.491 36.084 304.563 36.6616 303.774 37.403C303.006 38.1614 302.398 39.0667 301.986 40.0649C301.552 41.1496 301.336 42.3094 301.351 43.4777C301.35 44.8341 301.713 46.166 302.402 47.3341C303.129 48.5456 304.172 49.5366 305.419 50.2008C306.82 50.9426 308.387 51.316 309.972 51.286C311.384 51.2607 312.777 50.952 314.067 50.3782C314.591 50.1481 315.074 49.832 315.494 49.4432L313.057 46.3444C312.208 47.0474 311.135 47.4227 310.033 47.4023C309.25 47.4177 308.479 47.2043 307.815 46.788C307.169 46.4038 306.65 45.8391 306.32 45.1636C305.969 44.4507 305.791 43.6649 305.802 42.8702C305.792 42.346 305.896 41.826 306.106 41.3454C306.315 40.8649 306.626 40.4352 307.016 40.0854C307.809 39.3438 308.86 38.942 309.945 38.966C310.538 38.9645 311.128 39.059 311.692 39.2459C312.18 39.4124 312.637 39.6593 313.043 39.9762L315.35 36.8365C314.614 36.2835 313.794 35.8525 312.921 35.5601C311.966 35.2496 310.969 35.0929 309.965 35.096Z" fill="#516DB4"/>
<path d="M332.346 50.8968V43.1976C332.355 42.0869 332.122 40.9876 331.664 39.976C331.198 38.9996 330.544 38.125 329.739 37.4028C328.929 36.6643 327.983 36.0916 326.954 35.7169C325.899 35.3234 324.783 35.1223 323.657 35.123C322.533 35.1225 321.418 35.3284 320.367 35.7305C319.338 36.0999 318.392 36.6681 317.583 37.4028C316.782 38.1283 316.132 39.0051 315.671 39.9828C315.143 41.1583 314.912 42.446 315.001 43.7318C315.089 45.0177 315.493 46.2619 316.176 47.3543C316.975 48.5813 318.078 49.5806 319.378 50.2552C320.537 50.8612 321.812 51.2141 323.118 51.2906C324.424 51.3671 325.732 51.1654 326.954 50.6988C327.104 50.6511 327.336 50.5555 327.636 50.419L327.875 50.3098V50.8558L332.346 50.8968ZM326.626 46.1189C325.837 46.8898 324.778 47.3213 323.674 47.3213C322.571 47.3213 321.512 46.8898 320.722 46.1189C320.323 45.7518 320.004 45.3055 319.787 44.8084C319.569 44.3113 319.458 43.7743 319.46 43.2317C319.453 42.5068 319.657 41.7956 320.047 41.1841C320.441 40.5572 320.988 40.0405 321.637 39.6825C322.271 39.3317 322.984 39.1477 323.708 39.1477C324.433 39.1477 325.146 39.3317 325.78 39.6825C326.414 40.0394 326.948 40.5484 327.336 41.1636C327.725 41.7752 327.929 42.4864 327.923 43.2113C327.923 43.7598 327.808 44.3023 327.585 44.8033C327.361 45.3043 327.035 45.7526 326.626 46.1189Z" fill="#516DB4"/>
<path d="M336.612 48.6518C337.072 49.5493 337.816 50.2693 338.728 50.6995C339.836 51.1882 341.04 51.4215 342.25 51.382C342.769 51.3802 343.266 51.1733 343.633 50.8063C344 50.4393 344.207 49.9421 344.209 49.4231V46.9045C343.85 46.9944 343.48 47.0358 343.11 47.0274C341.294 47.0274 340.38 46.2765 340.38 44.8022V39.5125H342.543L343.526 35.7107H340.38V29.793H335.902V35.738H333.759L332.762 39.5398H335.895V45.2049C335.854 46.3948 336.1 47.5771 336.612 48.6518Z" fill="#516DB4"/>
<path d="M345.997 39.9759C345.538 40.9873 345.305 42.0868 345.315 43.1975C345.296 44.6756 345.714 46.1264 346.516 47.3679C347.306 48.6035 348.408 49.6089 349.71 50.2824C350.866 50.8972 352.141 51.2568 353.448 51.3369C354.755 51.4169 356.064 51.2156 357.286 50.7465C358.322 50.3614 359.274 49.7822 360.092 49.0402C360.902 48.3039 361.557 47.4127 362.017 46.4192C362.478 45.4085 362.711 44.3085 362.699 43.1975C362.708 42.0868 362.475 40.9875 362.017 39.9759C361.553 38.9859 360.899 38.0975 360.09 37.3618C359.282 36.6261 358.336 36.0577 357.307 35.6895C355.188 34.8978 352.853 34.8978 350.734 35.6895C349.701 36.0722 348.751 36.6491 347.936 37.389C347.123 38.1127 346.463 38.9924 345.997 39.9759ZM350.365 41.1635C350.751 40.5467 351.286 40.0372 351.922 39.6824C352.552 39.3214 353.266 39.1315 353.993 39.1315C354.72 39.1315 355.434 39.3214 356.065 39.6824C356.699 40.0391 357.233 40.5482 357.621 41.1635C358.008 41.7757 358.21 42.4869 358.201 43.2112C358.206 43.7566 358.096 44.2969 357.88 44.7976C357.664 45.2983 357.345 45.7483 356.945 46.1188C356.158 46.8929 355.098 47.3267 353.993 47.3267C352.889 47.3267 351.829 46.8929 351.041 46.1188C350.639 45.7497 350.318 45.3001 350.101 44.7992C349.883 44.2983 349.773 43.7573 349.778 43.2112C349.772 42.4863 349.976 41.7751 350.365 41.1635Z" fill="#516DB4"/>
<path d="M370.275 39.1286H370.555C370.834 39.1396 371.109 39.1997 371.367 39.3061V35.1972C371.096 35.1569 370.823 35.1341 370.548 35.1289H370.282C365.907 35.3473 363.777 37.5588 363.777 41.893V50.8549H368.269V41.8725C368.269 40.1047 368.944 39.1833 370.275 39.1286Z" fill="#516DB4"/>
<path d="M376.295 51.1427C377.067 51.2917 377.851 51.3626 378.637 51.3543C379.657 51.3539 380.667 51.1473 381.606 50.7469C382.514 50.3957 383.303 49.7917 383.879 49.0064C384.447 48.2112 384.741 47.2531 384.718 46.2762C384.818 45.1494 384.47 44.0287 383.749 43.1569C383.09 42.4845 382.255 42.0114 381.339 41.7918C380.445 41.5802 379.531 41.355 378.609 41.1093C377.688 40.8635 377.244 40.4267 377.244 39.7442C377.244 39.0616 377.858 38.6521 379.067 38.6521C379.972 38.6548 380.854 38.9439 381.585 39.478L384.008 37.0686C383.579 36.6933 383.11 36.366 382.609 36.0925C382.035 35.7666 381.426 35.5078 380.793 35.3212C380.2 35.1542 379.587 35.0692 378.971 35.0687C377.964 35.0594 376.965 35.2448 376.029 35.6147C375.184 35.9507 374.45 36.5185 373.913 37.2529C373.361 38.0534 373.081 39.0108 373.115 39.9831C373.023 41.0985 373.371 42.2058 374.084 43.0682C374.749 43.7555 375.593 44.2427 376.521 44.4742C377.783 44.8019 378.657 45.0271 379.21 45.1568C380.09 45.3957 380.534 45.7779 380.534 46.3035C380.534 47.259 379.749 47.7436 378.2 47.7436C376.906 47.7614 375.656 47.2713 374.719 46.3785L372.494 49.3203C373.068 49.7518 373.681 50.1309 374.323 50.4534C374.942 50.7816 375.607 51.014 376.295 51.1427Z" fill="#516DB4"/>
<path d="M257.641 51.3538C259.515 51.3793 261.342 50.765 262.82 49.6122C264.298 48.4593 265.339 46.837 265.77 45.0129H262.31C261.579 46.7057 260.016 47.6408 257.894 47.6408C254.795 47.6408 253.068 46.2757 253.041 43.7025V43.525H253.211H265.934V43.4226C265.934 43.3612 265.934 43.3134 265.934 43.2724V43.1359C265.935 42.0348 265.703 40.946 265.251 39.9416C264.825 38.9634 264.202 38.083 263.422 37.3547C262.644 36.6262 261.734 36.0538 260.74 35.6688C258.716 34.8838 256.471 34.8838 254.447 35.6688C253.456 36.0581 252.55 36.6352 251.778 37.3684C251.009 38.1094 250.394 38.9956 249.969 39.9757C249.514 40.979 249.282 42.0686 249.287 43.1701C249.283 43.195 249.283 43.2202 249.287 43.2451C249.287 43.2451 249.287 43.3066 249.287 43.3407V43.5113C249.377 45.6514 250.302 47.6707 251.864 49.1367C253.426 50.6027 255.5 51.3986 257.641 51.3538ZM254.549 40.6583C254.863 40.2782 255.233 39.949 255.648 39.6822C256.253 39.3336 256.939 39.1502 257.638 39.1502C258.336 39.1502 259.022 39.3336 259.627 39.6822C260.045 39.9468 260.419 40.2762 260.733 40.6583L260.972 40.9381H254.31L254.549 40.6583Z" fill="#516DB4"/>
<path d="M404.519 54.3091H247.621C247.451 54.3142 247.283 54.2636 247.144 54.1651C247.005 54.0666 246.902 53.9255 246.85 53.763L239.158 26.461C239.036 26.0367 238.779 25.6638 238.426 25.3999C238.072 25.1359 237.641 24.9955 237.2 25.0001C236.759 25.0048 236.331 25.1543 235.983 25.4256C235.635 25.697 235.386 26.0752 235.274 26.502L227.957 54.7186C227.887 55.0021 227.724 55.2544 227.496 55.4362C227.267 55.618 226.985 55.7192 226.693 55.7238C226.401 55.7285 226.115 55.6365 225.881 55.4621C225.647 55.2877 225.477 55.0407 225.397 54.7596L220.565 38.0985C220.444 37.6889 220.196 37.3284 219.856 37.069C219.517 36.8097 219.104 36.665 218.677 36.6559C218.25 36.6468 217.831 36.7737 217.481 37.0183C217.131 37.2629 216.867 37.6125 216.729 38.0166L211.166 54.3978C211.109 54.5527 211.004 54.6856 210.867 54.7775C210.73 54.8694 210.567 54.9157 210.402 54.9097H195.481C195.288 54.9042 195.096 54.9376 194.916 55.008C194.736 55.0783 194.572 55.1841 194.434 55.3192C194.296 55.4542 194.186 55.6156 194.111 55.7939C194.037 55.9721 193.999 56.1635 194 56.3567V57.7218C194.019 58.0978 194.185 58.4512 194.462 58.7064C194.739 58.9615 195.105 59.0981 195.481 59.0869H213.712C214.027 59.0985 214.338 59.0087 214.599 58.8305C214.859 58.6524 215.056 58.3953 215.159 58.0972L217.111 52.2614C217.206 51.9998 217.378 51.7733 217.605 51.6122C217.832 51.4512 218.102 51.3634 218.381 51.3605C218.659 51.356 218.931 51.4412 219.158 51.6034C219.384 51.7657 219.552 51.9964 219.637 52.2614L224.974 69.3252C225.105 69.7286 225.362 70.0793 225.707 70.3252C226.053 70.5711 226.468 70.6991 226.892 70.6903H226.933C227.361 70.6861 227.775 70.5426 228.114 70.2815C228.453 70.0203 228.697 69.6558 228.81 69.2433L236.072 42.8218C236.152 42.5436 236.32 42.299 236.551 42.1248C236.782 41.9506 237.063 41.8564 237.352 41.8564C237.641 41.8564 237.923 41.9506 238.154 42.1248C238.385 42.299 238.553 42.5436 238.632 42.8218L242.727 57.4079C242.827 57.7061 243.02 57.9643 243.279 58.1438C243.537 58.3234 243.846 58.4147 244.161 58.4044H404.519C404.895 58.4138 405.26 58.2766 405.536 58.0218C405.812 57.767 405.979 57.4146 406 57.0393V55.6742C405.979 55.2988 405.812 54.9464 405.536 54.6916C405.26 54.4368 404.895 54.2996 404.519 54.3091Z" fill="#526EB5"/>
<path d="M391.093 51.3046C390.702 51.3333 390.31 51.2788 389.942 51.1447C389.573 51.0106 389.238 50.7998 388.957 50.5264C388.432 49.8692 388.176 49.0375 388.24 48.199V42.916H388.998V48.0351C388.948 48.7095 389.133 49.3802 389.523 49.9326C389.947 50.335 390.509 50.5593 391.093 50.5593C391.677 50.5593 392.239 50.335 392.663 49.9326C393.053 49.3802 393.239 48.7095 393.189 48.0351V42.916H393.987V48.199C394.051 49.0375 393.795 49.8692 393.271 50.5264C392.985 50.8049 392.642 51.0185 392.267 51.1528C391.891 51.2871 391.491 51.3388 391.093 51.3046Z" fill="#516DB4"/>
<path d="M395.482 51.1476V42.916H396.239V46.6905L399.932 42.916H400.888L396.895 47.0113L401.304 51.168H400.239L396.239 47.414V51.1476H395.482Z" fill="#516DB4"/>
</svg>
